<svg width="34" height="67" viewBox="0 0 34 67" fill="none" xmlns="http://www.w3.org/2000/svg" class="assets--overlay--OZ7Lz"><path d="M23.1182 32.0172C23.2728 31.7405 23.635 31.6437 23.9072 31.8063C25.4221 32.7114 27.2476 33.024 29 32.6403V65.6139H5V32.6393C6.75389 33.0247 8.58131 32.7122 10.0977 31.8063C10.3699 31.6437 10.732 31.7405 10.8867 32.0172C12.0827 34.1621 14.3729 35.6139 17.0029 35.6139C19.6328 35.6139 21.9223 34.1619 23.1182 32.0172ZM16.0713 3.93521C16.4065 3.09707 17.5934 3.09708 17.9287 3.93521L20.7139 10.8981C19.5654 11.3579 18.3127 11.6139 17 11.6139C15.6873 11.6139 14.4346 11.358 13.2861 10.8981L16.0713 3.93521Z" fill="#000000"></path></svg>